<svg width="23" height="27" viewBox="0 0 23 27" fill="none" xmlns="http://www.w3.org/2000/svg">
<path d="M22.1474 18.2463C22.0526 18.132 21.9594 18.0177 21.868 17.9074C20.6109 16.3868 19.8503 15.4691 19.8503 11.1646C19.8503 8.93598 19.3172 7.10741 18.2663 5.73598C17.4914 4.72284 16.444 3.95427 15.0634 3.38627C15.0457 3.37639 15.0298 3.36342 15.0166 3.34798C14.52 1.68513 13.1612 0.571411 11.6286 0.571411C10.096 0.571411 8.73773 1.68513 8.24116 3.34627C8.22791 3.36114 8.21227 3.37369 8.19488 3.38341C4.97316 4.7097 3.40745 7.25427 3.40745 11.1628C3.40745 15.4691 2.64802 16.3868 1.38973 17.9057C1.29831 18.016 1.20516 18.128 1.11031 18.2446C0.865277 18.5401 0.710032 18.8996 0.662942 19.2805C0.615852 19.6615 0.678888 20.048 0.844591 20.3943C1.19716 21.1371 1.94859 21.5983 2.80631 21.5983H20.4572C21.3109 21.5983 22.0572 21.1377 22.4109 20.3983C22.5773 20.0519 22.6409 19.6651 22.5942 19.2837C22.5476 18.9023 22.3925 18.5423 22.1474 18.2463ZM11.6286 26.1714C12.4543 26.1707 13.2645 25.9466 13.9731 25.5228C14.6818 25.0989 15.2625 24.4912 15.6537 23.764C15.6722 23.7291 15.6813 23.6901 15.6802 23.6507C15.6791 23.6113 15.6678 23.5728 15.6474 23.5391C15.6271 23.5053 15.5983 23.4774 15.564 23.458C15.5296 23.4387 15.4909 23.4285 15.4514 23.4286H7.80688C7.76741 23.4284 7.72857 23.4385 7.69416 23.4578C7.65974 23.4772 7.63092 23.5051 7.61049 23.5388C7.59006 23.5726 7.57873 23.6111 7.5776 23.6506C7.57646 23.69 7.58557 23.7291 7.60402 23.764C7.99518 24.4911 8.57582 25.0988 9.28437 25.5226C9.99291 25.9464 10.803 26.1706 11.6286 26.1714Z" fill="black"/>
</svg>
